<svg width="17" height="17" viewBox="0 0 17 17" fill="none" xmlns="http://www.w3.org/2000/svg">
<path d="M9.91536 1.4165H4.2487C3.87297 1.4165 3.51264 1.56575 3.24696 1.83143C2.98129 2.09711 2.83203 2.45744 2.83203 2.83316V14.1665C2.83203 14.5422 2.98129 14.9025 3.24696 15.1682C3.51264 15.4339 3.87297 15.5831 4.2487 15.5831H12.7487C13.1244 15.5831 13.4848 15.4339 13.7504 15.1682C14.0161 14.9025 14.1654 14.5422 14.1654 14.1665V5.6665L9.91536 1.4165Z" stroke="black" stroke-linecap="round" stroke-linejoin="round"/>
<path d="M9.91797 1.4165V5.6665H14.168" stroke="black" stroke-linecap="round" stroke-linejoin="round"/>
<path d="M11.3346 9.2085H5.66797" stroke="black" stroke-linecap="round" stroke-linejoin="round"/>
<path d="M11.3346 12.0415H5.66797" stroke="black" stroke-linecap="round" stroke-linejoin="round"/>
<path d="M7.08463 6.375H6.3763H5.66797" stroke="black" stroke-linecap="round" stroke-linejoin="round"/>
</svg>
