<svg width="20" height="21" viewBox="0 0 20 21" fill="none" xmlns="http://www.w3.org/2000/svg">
<g clip-path="url(#clip0_111_53141)">
<path d="M10 20.5C15.5228 20.5 20 16.0228 20 10.5C20 4.97715 15.5228 0.5 10 0.5C4.47715 0.5 0 4.97715 0 10.5C0 16.0228 4.47715 20.5 10 20.5Z" fill="url(#paint0_linear_111_53141)"/>
<path d="M6.76953 11.231L7.95595 14.5149C7.95595 14.5149 8.10428 14.8221 8.26311 14.8221C8.42195 14.8221 10.7844 12.3644 10.7844 12.3644L13.4114 7.29028L6.81186 10.3834L6.76953 11.231Z" fill="#C8DAEA"/>
<path d="M8.34209 12.0731L8.11434 14.4936C8.11434 14.4936 8.01901 15.2353 8.76051 14.4936C9.50201 13.752 10.2118 13.18 10.2118 13.18" fill="#A9C6D8"/>
<path d="M6.79067 11.3481L4.35017 10.553C4.35017 10.553 4.05851 10.4346 4.15242 10.1663C4.17176 10.111 4.21075 10.0639 4.32742 9.98295C4.86817 9.60604 14.3363 6.20295 14.3363 6.20295C14.3363 6.20295 14.6036 6.11287 14.7613 6.17279C14.8003 6.18486 14.8354 6.20708 14.863 6.23717C14.8906 6.26726 14.9097 6.30414 14.9183 6.34404C14.9354 6.41451 14.9425 6.48701 14.9395 6.55945C14.9388 6.62212 14.9312 6.6802 14.9254 6.77129C14.8678 7.7017 13.1421 14.6457 13.1421 14.6457C13.1421 14.6457 13.0388 15.052 12.6689 15.066C12.578 15.0689 12.4874 15.0535 12.4026 15.0207C12.3178 14.9879 12.2404 14.9383 12.1752 14.875C11.4493 14.2505 8.94026 12.5644 8.38584 12.1935C8.37333 12.185 8.3628 12.1739 8.35495 12.161C8.3471 12.148 8.34212 12.1336 8.34034 12.1185C8.33259 12.0795 8.37509 12.031 8.37509 12.031C8.37509 12.031 12.7439 8.1477 12.8602 7.74004C12.8692 7.70845 12.8352 7.69287 12.7895 7.7067C12.4993 7.81345 7.46917 10.99 6.91401 11.3406C6.87404 11.3527 6.8318 11.3553 6.79067 11.3481Z" fill="white"/>
</g>
<defs>
<linearGradient id="paint0_linear_111_53141" x1="10" y1="20.5" x2="10" y2="0.5" gradientUnits="userSpaceOnUse">
<stop stop-color="#1D93D2"/>
<stop offset="1" stop-color="#38B0E3"/>
</linearGradient>
<clipPath id="clip0_111_53141">
<rect width="20" height="20" fill="white" transform="translate(0 0.5)"/>
</clipPath>
</defs>
</svg>
